<svg xmlns="http://www.w3.org/2000/svg" viewBox="0 0 588 528" width="147" height="132">
<g transform="translate(0,528) scale(0.1,-0.1)" fill="currentColor" stroke="none">
<path d="M2727 5199 c-70 -61 -223 -233 -272 -309 -112 -171 -132 -248 -121
-465 11 -240 26 -429 47 -595 20 -162 30 -228 90 -600 6 -36 19 -104 30 -152
10 -48 19 -99 19 -113 0 -15 7 -53 15 -84 8 -31 21 -99 29 -151 17 -104 27
-159 57 -325 11 -60 21 -133 22 -162 2 -49 -1 -55 -40 -95 -49 -51 -83 -112
-83 -150 0 -14 -3 -33 -6 -42 -7 -17 -103 -65 -264 -131 -36 -15 -83 -35 -105
-45 -22 -10 -65 -28 -95 -40 -30 -12 -73 -31 -96 -41 -23 -11 -47 -19 -53 -19
-7 0 -29 -9 -49 -19 -20 -11 -62 -29 -92 -41 -30 -12 -72 -30 -92 -41 -20 -10
-42 -19 -49 -19 -6 0 -30 -8 -53 -19 -23 -10 -66 -29 -96 -42 -30 -12 -92 -40
-138 -61 -45 -21 -84 -38 -87 -38 -16 0 -408 -193 -530 -260 -152 -85 -265
-150 -280 -162 -5 -4 -46 -32 -90 -61 -44 -29 -92 -71 -107 -93 -31 -43 -118
-218 -118 -235 0 -6 -7 -25 -15 -42 -19 -41 -42 -125 -56 -202 -5 -33 -14 -82
-19 -108 -9 -42 -7 -52 11 -76 52 -70 460 -148 642 -122 65 9 232 82 312 136
20 14 38 25 41 25 3 0 17 8 32 19 15 10 74 49 132 87 106 69 464 333 510 376
14 13 41 35 62 50 20 15 42 33 50 41 7 7 71 62 143 122 71 61 168 144 215 185
47 42 127 111 179 155 52 44 103 89 114 99 11 11 81 68 156 129 125 101 137
108 165 101 17 -4 84 -8 148 -10 l117 -2 70 -53 c38 -30 95 -72 126 -94 31
-22 79 -59 108 -81 29 -23 71 -54 93 -70 23 -16 164 -122 315 -235 151 -113
310 -231 354 -262 78 -56 384 -262 417 -282 9 -5 49 -29 90 -53 40 -24 87 -51
103 -62 60 -38 268 -145 350 -181 45 -19 61 -21 175 -16 169 7 351 49 547 127
54 22 42 124 -42 360 -18 51 -27 72 -81 185 -41 84 -99 152 -174 201 -24 16
-55 37 -69 46 -33 22 -71 43 -168 94 -43 22 -87 45 -98 51 -24 13 -183 88
-240 113 -22 10 -61 27 -86 39 -25 12 -50 21 -54 21 -4 0 -26 8 -49 19 -46 21
-123 52 -176 71 -19 7 -53 19 -75 26 -22 8 -49 19 -60 24 -23 10 -125 46 -170
60 -16 5 -52 16 -80 26 -50 18 -120 41 -185 63 -19 7 -82 28 -140 47 -58 19
-113 38 -122 44 -10 5 -34 14 -55 19 -21 6 -76 24 -123 41 -47 17 -99 35 -117
41 -18 5 -45 16 -60 24 -15 8 -35 15 -43 15 -30 0 -82 41 -96 77 -19 44 -82
130 -119 161 -23 20 -26 29 -22 60 4 21 9 73 12 117 3 44 14 141 25 215 18
126 25 182 51 370 5 41 18 134 29 205 68 463 94 774 94 1125 0 250 -3 298 -22
395 -11 61 -29 126 -39 145 -51 98 -244 316 -361 408 -71 55 -101 56 -165 1z"/>
</g>
</svg>
